<svg width="120" height="56" viewBox="0 0 120 56" fill="none" xmlns="http://www.w3.org/2000/svg">
<path d="M57.8187 2.41603C58.9229 2.1428 60.0771 2.1428 61.1813 2.41603L105.71 13.434C108.834 14.207 111.029 17.0107 111.029 20.2291V34.7709C111.029 37.9893 108.834 40.793 105.71 41.566L61.1813 52.584C60.0771 52.8572 58.9229 52.8572 57.8187 52.584L13.2901 41.566C10.166 40.793 7.97149 37.9893 7.97149 34.7709V20.2291C7.97149 17.0107 10.166 14.207 13.2901 13.434L57.8187 2.41603Z" fill="#7F56D9"/>
<path d="M57.9988 3.14407C58.9847 2.90011 60.0153 2.90011 61.0012 3.14407L105.53 14.162C108.319 14.8522 110.279 17.3555 110.279 20.2291V34.7709C110.279 37.6445 108.319 40.1478 105.53 40.838L61.0012 51.8559C60.0153 52.0999 58.9847 52.0999 57.9988 51.8559L13.4703 40.838C10.6809 40.1478 8.72149 37.6445 8.72149 34.7709V20.2291C8.72149 17.3555 10.6809 14.8522 13.4703 14.162L57.9988 3.14407Z" stroke="white" stroke-opacity="0.19" stroke-width="1.5"/>
<path d="M26.7369 36.3075H21.4861L30.3774 18.6924H37.0284L39.9688 36.3075H34.7181L32.9678 23.5435H32.8278L26.7369 36.3075ZM26.9469 29.3578H36.8184L36.1883 32.9359H26.3168L26.9469 29.3578Z" fill="white"/>
<path d="M57.9444 25.2981H53.0786C53.1137 24.891 53.0903 24.524 53.0086 24.1972C52.927 23.8703 52.7869 23.5893 52.5886 23.3542C52.3902 23.1134 52.1306 22.9299 51.8097 22.8038C51.4888 22.6776 51.1067 22.6145 50.6633 22.6145C49.8115 22.6145 49.0501 22.8238 48.3792 23.2424C47.7083 23.6553 47.1511 24.2488 46.7077 25.0229C46.2643 25.7912 45.9493 26.7087 45.7626 27.7752C45.5992 28.8074 45.5934 29.6646 45.7451 30.347C45.9026 31.0293 46.2089 31.5396 46.6639 31.878C47.1248 32.2163 47.7229 32.3854 48.458 32.3854C48.948 32.3854 49.3973 32.3281 49.8057 32.2134C50.2199 32.0987 50.5874 31.9353 50.9083 31.7231C51.235 31.5052 51.5122 31.2472 51.7397 30.949C51.9731 30.6451 52.151 30.3097 52.2735 29.9427H57.1743C56.9876 30.6881 56.655 31.4508 56.1766 32.2306C55.6982 33.0047 55.0798 33.7186 54.3213 34.3723C53.5629 35.0202 52.6703 35.5449 51.6434 35.9463C50.6166 36.3477 49.4614 36.5484 48.1779 36.5484C46.4977 36.5484 45.0479 36.1871 43.8285 35.4646C42.615 34.7421 41.734 33.6871 41.1856 32.2994C40.643 30.9118 40.5351 29.2202 40.8618 27.2247C41.1885 25.2981 41.8332 23.684 42.7959 22.3823C43.7585 21.0807 44.9283 20.1001 46.3051 19.4407C47.682 18.7813 49.1464 18.4516 50.6983 18.4516C51.871 18.4516 52.9211 18.6036 53.8488 18.9075C54.7822 19.2114 55.5669 19.6558 56.2029 20.2406C56.8446 20.8198 57.3172 21.5337 57.6206 22.3823C57.924 23.231 58.0319 24.2029 57.9444 25.2981Z" fill="white"/>
<path d="M59.8109 18.6924H65.8668L68.3522 28.6697H68.5622L74.4081 18.6924H80.464L77.4886 36.3075H72.7279L74.4431 26.1238H74.3031L68.6323 36.1699H65.7618L63.4865 26.055H63.3465L61.5962 36.3075H56.8355L59.8109 18.6924Z" fill="white"/>
<path d="M78.3159 36.3075L81.2914 18.6924H94.2083L93.5432 22.5457H85.492L85.0019 25.5733H92.388L91.7229 29.4266H84.3368L83.8468 32.4542H91.863L91.1979 36.3075H78.3159Z" fill="white"/>
</svg>
